<?xml version="1.0" encoding="UTF-8"?>
<svg id="Layer_2" data-name="Layer 2" xmlns="http://www.w3.org/2000/svg" xmlns:xlink="http://www.w3.org/1999/xlink" viewBox="0 0 21.01 35">
  <defs>
    <style>
      .cls-1 {
        fill: url(#linear-gradient-4);
      }

      .cls-1, .cls-2, .cls-3, .cls-4 {
        fill-rule: evenodd;
      }

      .cls-2 {
        fill: url(#linear-gradient-2);
      }

      .cls-3 {
        fill: url(#linear-gradient);
      }

      .cls-4 {
        fill: url(#linear-gradient-3);
      }
    </style>
    <linearGradient id="linear-gradient" x1="374.38" y1="-588.48" x2="367.92" y2="-577.43" gradientTransform="translate(-153.56 -217.93) scale(.42 -.42)" gradientUnits="userSpaceOnUse">
      <stop offset="0" stop-color="#d9c185"/>
      <stop offset="1" stop-color="#8e783e"/>
    </linearGradient>
    <linearGradient id="linear-gradient-2" x1="363.25" y1="-549.47" x2="373.83" y2="-527.04" gradientTransform="translate(-153.56 -217.93) scale(.42 -.42)" gradientUnits="userSpaceOnUse">
      <stop offset=".18" stop-color="#d9c185"/>
      <stop offset="1" stop-color="#907c44"/>
    </linearGradient>
    <linearGradient id="linear-gradient-3" x1="365.75" y1="-582.07" x2="386.87" y2="-549.93" gradientTransform="translate(-153.56 -217.93) scale(.42 -.42)" gradientUnits="userSpaceOnUse">
      <stop offset="0" stop-color="#d9c185"/>
      <stop offset=".28" stop-color="#c8b176"/>
      <stop offset="1" stop-color="#9f8951"/>
    </linearGradient>
    <linearGradient id="linear-gradient-4" x1="389.73" y1="-516.8" x2="389.73" y2="-599.79" gradientTransform="translate(-153.56 -217.93) scale(.42 -.42)" gradientUnits="userSpaceOnUse">
      <stop offset="0" stop-color="#d9c185"/>
      <stop offset=".23" stop-color="#ceb67a"/>
      <stop offset=".62" stop-color="#b0995e"/>
      <stop offset="1" stop-color="#8e783e"/>
    </linearGradient>
  </defs>
  <g id="Layer_1-2" data-name="Layer 1">
    <path class="cls-3" d="M5.27,23.45v6.22l-3.82,2.2c-.14,.08-.3,.12-.47,.12-.25,0-.5-.1-.68-.28C.12,31.54,.01,31.29,0,31.04H0v-3.96c0-.19,.05-.37,.15-.53,.1-.16,.24-.29,.41-.37l4.71-2.72Z"/>
    <path class="cls-2" d="M1.43,3.07s3.84,2.24,3.84,2.24v5.67s-.01,.09-.04,.13c-.02,.04-.06,.07-.09,.09L.38,14.02s-.08,.03-.13,.03c-.04,0-.09-.01-.13-.04-.04-.02-.07-.06-.09-.09-.02-.04-.03-.08-.03-.13V3.94c0-.26,.11-.51,.29-.69,.18-.18,.43-.29,.68-.29,.12,0,.24,.02,.35,.07l.11,.05Z"/>
    <path class="cls-4" d="M0,27.08v-5.95c0-.22,.06-.44,.17-.64s.27-.35,.46-.46l9.5-5.53s.08-.03,.13-.03c.04,0,.09,.01,.12,.03,.04,.02,.07,.05,.09,.09,.02,.04,.03,.08,.03,.13v5.57s-.01,.09-.04,.13c-.02,.04-.06,.07-.09,.09L.56,26.19c-.17,.08-.31,.21-.41,.37C.05,26.71,0,26.9,0,27.08H0Z"/>
    <path class="cls-1" d="M1.46,31.86l13.72-7.99c.19-.11,.35-.27,.46-.46,.11-.19,.17-.41,.17-.64V12.18c0-.22-.06-.44-.17-.64-.11-.19-.27-.35-.46-.46L1.46,3.09c-.15-.09-.32-.13-.49-.13-.12,.01-.25,.04-.37,.08L5.52,.17c.19-.11,.41-.17,.63-.17s.44,.06,.63,.17l13.61,7.93c.19,.11,.35,.27,.46,.46,.11,.19,.17,.41,.17,.64V25.88c0,.22-.06,.44-.17,.63-.11,.19-.27,.35-.46,.46l-13.5,7.85c-.19,.11-.41,.17-.62,.17s-.43-.06-.62-.17L.55,31.89c.14,.07,.3,.1,.46,.1,.16,0,.31-.05,.45-.13h0Z"/>
  </g>
</svg>