<?xml version="1.0" encoding="UTF-8"?>
<svg id="Layer_2" data-name="Layer 2" xmlns="http://www.w3.org/2000/svg" viewBox="0 0 21 21">
  <defs>
    <style>
      .cls-1 {
        fill: #e7352c;
      }
    </style>
  </defs>
  <g id="_图层_1" data-name="图层 1">
    <path class="cls-1" d="M6.93,15.65c0,.82-.66,1.48-1.48,1.48-.82,0-1.48-.66-1.48-1.48s.66-1.48,1.48-1.48h0c.82,0,1.48,.66,1.48,1.48"/>
    <path class="cls-1" d="M19.84,14.11C18.87,7.37,13.58,2.08,6.84,1.11c-.78,.42-1.51,.94-2.15,1.55v1.43c6.72,0,12.16,5.44,12.17,12.16h1.43c.61-.64,1.13-1.36,1.55-2.14"/>
    <path class="cls-1" d="M21,9.62C21,4.31,16.69,0,11.38,0c-.02,0-.03,0-.05,0C10.99,0,10.66,0,10.33,.05l-.22,.64c4.74,1.66,8.47,5.39,10.14,10.13l.64-.23c0-.32,.06-.64,.06-1"/>
    <path class="cls-1" d="M11.44,21C5.14,21,.03,15.91,0,9.61,0,6.57,1.2,3.66,3.35,1.52l.65,.61C-.14,6.24-.17,12.92,3.93,17.06c.02,.02,.04,.04,.07,.07,4.11,4.14,10.79,4.17,14.93,.07,.02-.02,.04-.04,.07-.07l.61,.61c-2.17,2.14-5.12,3.32-8.17,3.26"/>
    <path class="cls-1" d="M11.31,16.91c.21-2.29-.78-4.52-2.61-5.91-.97-.76-2.13-1.23-3.35-1.36-.32-.04-.55-.32-.53-.64,.03-.32,.31-.57,.63-.54,0,0,.01,0,.02,0,4.3,.45,7.42,4.28,7,8.58-.04,.46-.13,.91-.26,1.35l1.74,.49c.51-.15,1.02-.34,1.5-.57,.13-.68,.19-1.36,.19-2.05,0-5.43-3.97-10.04-9.33-10.86-.58-.11-1.17-.11-1.75,0-.73,.19-1.39,.6-1.89,1.17-1.35,1.56-1.18,3.92,.39,5.28,.38,.32,.81,.57,1.28,.72,.31,.07,.62,.13,.94,.17h0c1.69,.29,2.92,1.75,2.92,3.46,0,.67-.19,1.33-.56,1.89l1.2,.77c.59,.16,1.19,.26,1.8,.3,.36-.72,.58-1.5,.66-2.3"/>
  </g>
</svg>